<svg width="800" height="800" viewBox="0 0 800 800" xmlns="http://www.w3.org/2000/svg">
  <defs>
    <pattern id="smallGrid" width="20" height="20" patternUnits="userSpaceOnUse">
      <path d="M 20 0 L 0 0 0 20" fill="none" stroke="#3B82F6" stroke-width="0.5" opacity="0.1"/>
    </pattern>
    <pattern id="grid" width="100" height="100" patternUnits="userSpaceOnUse">
      <rect width="100" height="100" fill="url(#smallGrid)"/>
      <path d="M 100 0 L 0 0 0 100" fill="none" stroke="#3B82F6" stroke-width="1" opacity="0.2"/>
    </pattern>
  </defs>
  
  <!-- Base grid background -->
  <rect width="800" height="800" fill="url(#grid)" />
  
  <!-- Circuit lines -->
  <g fill="none" stroke="#3B82F6" stroke-width="1.5" opacity="0.4">
    <!-- Horizontal circuit paths -->
    <path d="M 50,100 L 200,100 L 200,300 L 400,300 L 400,200 L 600,200" />
    <path d="M 100,500 L 300,500 L 300,600 L 500,600 L 500,400 L 700,400" />
    <path d="M 50,700 L 250,700 L 250,650 L 450,650 L 450,750 L 650,750" />
    
    <!-- Vertical circuit paths -->
    <path d="M 150,50 L 150,150 L 250,150 L 250,350 L 350,350 L 350,550" />
    <path d="M 550,50 L 550,250 L 650,250 L 650,450 L 750,450 L 750,650" />
    <path d="M 350,150 L 350,250 L 450,250 L 450,450 L 550,450 L 550,550" />
  </g>
  
  <!-- Circuit nodes -->
  <g fill="#3B82F6" opacity="0.5">
    <!-- Connection points -->
    <circle cx="200" cy="100" r="3" />
    <circle cx="200" cy="300" r="3" />
    <circle cx="400" cy="300" r="3" />
    <circle cx="400" cy="200" r="3" />
    <circle cx="600" cy="200" r="3" />
    
    <circle cx="300" cy="500" r="3" />
    <circle cx="300" cy="600" r="3" />
    <circle cx="500" cy="600" r="3" />
    <circle cx="500" cy="400" r="3" />
    <circle cx="700" cy="400" r="3" />
    
    <circle cx="250" cy="700" r="3" />
    <circle cx="250" cy="650" r="3" />
    <circle cx="450" cy="650" r="3" />
    <circle cx="450" cy="750" r="3" />
    <circle cx="650" cy="750" r="3" />
    
    <circle cx="150" cy="150" r="3" />
    <circle cx="250" cy="150" r="3" />
    <circle cx="250" cy="350" r="3" />
    <circle cx="350" cy="350" r="3" />
    <circle cx="350" cy="550" r="3" />
    
    <circle cx="550" cy="250" r="3" />
    <circle cx="650" cy="250" r="3" />
    <circle cx="650" cy="450" r="3" />
    <circle cx="750" cy="450" r="3" />
    <circle cx="750" cy="650" r="3" />
    
    <circle cx="350" cy="250" r="3" />
    <circle cx="450" cy="250" r="3" />
    <circle cx="450" cy="450" r="3" />
    <circle cx="550" cy="450" r="3" />
    <circle cx="550" cy="550" r="3" />
  </g>
  
  <!-- Circuit components -->
  <g stroke="#3B82F6" fill="none" opacity="0.5">
    <!-- Resistors -->
    <path d="M 320,180 L 340,180 L 345,175 L 355,185 L 365,175 L 375,185 L 385,175 L 390,180 L 410,180" stroke-width="1.2" />
    <path d="M 520,480 L 540,480 L 545,475 L 555,485 L 565,475 L 575,485 L 585,475 L 590,480 L 610,480" stroke-width="1.2" />
    
    <!-- Capacitors -->
    <path d="M 180,380 L 200,380 M 205,380 L 205,365 M 205,395 L 205,380 M 210,380 L 230,380" stroke-width="1.2" />
    <path d="M 580,280 L 600,280 M 605,280 L 605,265 M 605,295 L 605,280 M 610,280 L 630,280" stroke-width="1.2" />
    
    <!-- ICs -->
    <rect x="270" y="520" width="40" height="60" rx="2" stroke-width="1" />
    <rect x="470" y="120" width="40" height="60" rx="2" stroke-width="1" />
    
    <!-- Diodes -->
    <path d="M 130,220 L 150,220 L 140,240 L 130,220 Z" stroke-width="1" />
    <path d="M 630,620 L 650,620 L 640,640 L 630,620 Z" stroke-width="1" />
  </g>
  
  <!-- CPU patterns -->
  <g stroke="#3B82F6" fill="none" opacity="0.4">
    <rect x="100" y="100" width="80" height="80" rx="3" stroke-width="1" />
    <line x1="110" y1="120" x2="170" y2="120" stroke-width="0.8" />
    <line x1="110" y1="140" x2="170" y2="140" stroke-width="0.8" />
    <line x1="110" y1="160" x2="170" y2="160" stroke-width="0.8" />
    
    <rect x="600" y="500" width="80" height="80" rx="3" stroke-width="1" />
    <line x1="610" y1="520" x2="670" y2="520" stroke-width="0.8" />
    <line x1="610" y1="540" x2="670" y2="540" stroke-width="0.8" />
    <line x1="610" y1="560" x2="670" y2="560" stroke-width="0.8" />
  </g>
  
  <!-- Dots and subtle patterns -->
  <g fill="#3B82F6" opacity="0.2">
    <circle cx="50" cy="50" r="1" />
    <circle cx="100" cy="50" r="1" />
    <circle cx="150" cy="50" r="1" />
    <circle cx="200" cy="50" r="1" />
    <circle cx="250" cy="50" r="1" />
    <circle cx="300" cy="50" r="1" />
    <circle cx="350" cy="50" r="1" />
    <circle cx="400" cy="50" r="1" />
    <circle cx="450" cy="50" r="1" />
    <circle cx="500" cy="50" r="1" />
    <circle cx="550" cy="50" r="1" />
    <circle cx="600" cy="50" r="1" />
    <circle cx="650" cy="50" r="1" />
    <circle cx="700" cy="50" r="1" />
    <circle cx="750" cy="50" r="1" />
    
    <!-- Repeating the pattern for several rows -->
    <circle cx="50" cy="100" r="1" />
    <circle cx="50" cy="150" r="1" />
    <circle cx="50" cy="200" r="1" />
    <circle cx="50" cy="250" r="1" />
    <circle cx="50" cy="300" r="1" />
    <circle cx="50" cy="350" r="1" />
    <circle cx="50" cy="400" r="1" />
    <circle cx="50" cy="450" r="1" />
    <circle cx="50" cy="500" r="1" />
    <circle cx="50" cy="550" r="1" />
    <circle cx="50" cy="600" r="1" />
    <circle cx="50" cy="650" r="1" />
    <circle cx="50" cy="700" r="1" />
    <circle cx="50" cy="750" r="1" />
    
    <!-- More dots would continue in the full SVG -->
  </g>
  
  <!-- Radar circles -->
  <g stroke="#3B82F6" fill="none" opacity="0.15">
    <circle cx="400" cy="400" r="100" stroke-width="1" />
    <circle cx="400" cy="400" r="200" stroke-width="0.8" />
    <circle cx="400" cy="400" r="300" stroke-width="0.6" />
    
    <!-- Radar sweep lines -->
    <line x1="400" y1="400" x2="700" y2="400" stroke-width="0.6" />
    <line x1="400" y1="400" x2="400" y2="100" stroke-width="0.6" />
    <line x1="400" y1="400" x2="100" y2="400" stroke-width="0.6" />
    <line x1="400" y1="400" x2="400" y2="700" stroke-width="0.6" />
    <line x1="400" y1="400" x2="580" y2="220" stroke-width="0.6" />
    <line x1="400" y1="400" x2="220" y2="220" stroke-width="0.6" />
    <line x1="400" y1="400" x2="580" y2="580" stroke-width="0.6" />
    <line x1="400" y1="400" x2="220" y2="580" stroke-width="0.6" />
  </g>
</svg>
